<svg width="48" height="49" viewBox="0 0 48 49" fill="none" xmlns="http://www.w3.org/2000/svg">
<rect y="0.871094" width="48" height="48" rx="6" fill="#FFE6EA"/>
<path fill-rule="evenodd" clip-rule="evenodd" d="M23 30.7422H25V28.7422H23V30.7422ZM24 14.7422C18.48 14.7422 14 19.2222 14 24.7422C14 30.2622 18.48 34.7422 24 34.7422C29.52 34.7422 34 30.2622 34 24.7422C34 19.2222 29.52 14.7422 24 14.7422ZM24 32.7422C19.59 32.7422 16 29.1522 16 24.7422C16 20.3322 19.59 16.7422 24 16.7422C28.41 16.7422 32 20.3322 32 24.7422C32 29.1522 28.41 32.7422 24 32.7422ZM24 18.7422C21.79 18.7422 20 20.5322 20 22.7422H22C22 21.6422 22.9 20.7422 24 20.7422C25.1 20.7422 26 21.6422 26 22.7422C26 24.7422 23 24.4922 23 27.7422H25C25 25.4922 28 25.2422 28 22.7422C28 20.5322 26.21 18.7422 24 18.7422Z" fill="#FF5A70"/>
</svg>
