<svg width="48" height="49" viewBox="0 0 48 49" fill="none" xmlns="http://www.w3.org/2000/svg">
<rect y="0.128906" width="48" height="48" rx="6" fill="#DAF3F6"/>
<path d="M21 23.25C25.1421 23.25 28.5 21.739 28.5 19.875C28.5 18.011 25.1421 16.5 21 16.5C16.8579 16.5 13.5 18.011 13.5 19.875C13.5 21.739 16.8579 23.25 21 23.25Z" stroke="#1E7480" stroke-width="2.25" stroke-linecap="round" stroke-linejoin="round"/>
<path d="M13.5 19.875V23.625C13.5 25.4906 16.8562 27 21 27C25.1438 27 28.5 25.4906 28.5 23.625V19.875" stroke="#1E7480" stroke-width="2.25" stroke-linecap="round" stroke-linejoin="round"/>
<path d="M18 22.9688V26.7188" stroke="#1E7480" stroke-width="2.25" stroke-linecap="round" stroke-linejoin="round"/>
<path d="M28.5 21.0658C31.9219 21.3845 34.5 22.7439 34.5 24.3752C34.5 26.2408 31.1438 27.7502 27 27.7502C25.1625 27.7502 23.475 27.4502 22.1719 26.9627" stroke="#1E7480" stroke-width="2.25" stroke-linecap="round" stroke-linejoin="round"/>
<path d="M19.5 26.9344V28.125C19.5 29.9906 22.8562 31.5 27 31.5C31.1438 31.5 34.5 29.9906 34.5 28.125V24.375" stroke="#1E7480" stroke-width="2.25" stroke-linecap="round" stroke-linejoin="round"/>
<path d="M30 27.4688V31.2188" stroke="#1E7480" stroke-width="2.25" stroke-linecap="round" stroke-linejoin="round"/>
<path d="M24 22.9688V31.2188" stroke="#1E7480" stroke-width="2.25" stroke-linecap="round" stroke-linejoin="round"/>
</svg>
