<svg width="48" height="48" viewBox="0 0 48 48" fill="none" xmlns="http://www.w3.org/2000/svg">
<rect width="48" height="48" rx="6" fill="#DAF3F6"/>
<path d="M32.914 18.7937L29.239 22.2499L32.739 31.8749L30.114 34.4999L24.8859 26.8437L22.239 29.2499V31.8749L19.614 34.4999L18.0609 29.9171L13.489 28.3749L16.114 25.7499H18.739L21.364 23.1249L13.489 17.8749L16.114 15.2499L25.739 18.7499L29.2062 15.0859L29.1296 15.1405C29.6228 14.6474 30.2916 14.3704 30.989 14.3704C31.6864 14.3704 32.3553 14.6474 32.8484 15.1405C33.3415 15.6337 33.6186 16.3025 33.6186 16.9999C33.6186 17.6973 33.3415 18.3662 32.8484 18.8593L32.914 18.7937Z" stroke="#0686FE" stroke-width="2.25" stroke-linecap="round" stroke-linejoin="round"/>
</svg>
