<svg width="48" height="48" viewBox="0 0 48 48" fill="none" xmlns="http://www.w3.org/2000/svg">
<rect width="48" height="48" rx="6" fill="#F6E9F6"/>
<path d="M33.625 15.25H14.375C13.8918 15.25 13.5 15.6418 13.5 16.125V31.875C13.5 32.3582 13.8918 32.75 14.375 32.75H33.625C34.1082 32.75 34.5 32.3582 34.5 31.875V16.125C34.5 15.6418 34.1082 15.25 33.625 15.25Z" stroke="#A13EA1" stroke-width="2.25" stroke-linecap="round" stroke-linejoin="round"/>
<path d="M28.375 19.625C28.375 20.7853 27.9141 21.8981 27.0936 22.7186C26.2731 23.5391 25.1603 24 24 24C22.8397 24 21.7269 23.5391 20.9064 22.7186C20.0859 21.8981 19.625 20.7853 19.625 19.625" stroke="#A13EA1" stroke-width="2.25" stroke-linecap="round" stroke-linejoin="round"/>
</svg>
