<svg width="80" height="80" viewBox="0 0 80 80" fill="none" xmlns="http://www.w3.org/2000/svg">
<path d="M40 70.9804C22.9172 70.9804 9.01953 57.0828 9.01953 40C9.01953 35.987 9.77488 32.0819 11.267 28.3926C13.5535 22.7367 17.4307 17.9144 22.4781 14.4465C27.6465 10.8967 33.706 9.01953 40 9.01953C57.0828 9.01953 70.9804 22.9172 70.9804 40C70.9804 57.0828 57.0828 70.9804 40 70.9804ZM40 11.3637C28.2642 11.3637 17.8381 18.3926 13.44 29.2726C12.0614 32.6809 11.3637 36.2902 11.3637 40C11.3637 55.7898 24.2102 68.6363 40 68.6363C55.7898 68.6363 68.6363 55.7898 68.6363 40C68.6363 24.2102 55.7898 11.3637 40 11.3637Z" fill="#545454"/>
<path d="M32.8427 54.1395C32.5562 54.1395 32.2678 54.0316 32.0464 53.8158C31.9925 53.7637 26.6343 48.5544 21.3636 43.3042C20.9171 42.8595 20.9153 42.1358 21.3599 41.6893C21.8046 41.2428 22.5283 41.2409 22.9748 41.6856C27.0529 45.7469 31.1832 49.786 32.8595 51.4195C36.4334 48.0856 51.1218 34.3349 58.1339 26.9972C58.1599 26.9693 58.1897 26.9377 58.2195 26.906C58.6436 26.4391 59.3655 26.4037 59.8325 26.8279C60.2995 27.2521 60.3348 27.9739 59.9106 28.4409C59.8715 28.4837 59.8306 28.5284 59.7897 28.5711C51.7618 36.9711 33.8008 53.6651 33.6204 53.8325C33.4008 54.0372 33.1218 54.1395 32.8427 54.1395Z" fill="#FF5A70"/>
</svg>
