<svg width="48" height="48" viewBox="0 0 48 48" fill="none" xmlns="http://www.w3.org/2000/svg">
<rect width="48" height="48" rx="6" fill="#EAFAF2"/>
<path d="M26.625 21.8125H30.125" stroke="#229059" stroke-width="2.25" stroke-linecap="round" stroke-linejoin="round"/>
<path d="M17.875 21.8125H21.375" stroke="#229059" stroke-width="2.25" stroke-linecap="round" stroke-linejoin="round"/>
<path d="M19.625 20.0625V23.5625" stroke="#229059" stroke-width="2.25" stroke-linecap="round" stroke-linejoin="round"/>
<path d="M28.8124 16.0923L19.1874 16.1251C17.8506 16.1276 16.5572 16.6001 15.5335 17.4599C14.5098 18.3196 13.8209 19.5119 13.5874 20.8282V20.8282L11.7937 30.0267C11.6785 30.669 11.7715 31.3314 12.0592 31.9171C12.3469 32.5029 12.8141 32.9815 13.3929 33.283C13.9716 33.5846 14.6315 33.6934 15.2765 33.5936C15.9214 33.4938 16.5175 33.1906 16.9781 32.7282V32.7282L21.7031 27.5001L28.8124 27.4673C30.3208 27.4673 31.7675 26.8681 32.8341 25.8015C33.9007 24.7348 34.4999 23.2882 34.4999 21.7798C34.4999 20.2714 33.9007 18.8247 32.8341 17.7581C31.7675 16.6915 30.3208 16.0923 28.8124 16.0923V16.0923Z" stroke="#229059" stroke-width="2.25" stroke-linecap="round" stroke-linejoin="round"/>
<path d="M34.4125 20.7954L36.2062 30.0267C36.3214 30.669 36.2284 31.3314 35.9407 31.9171C35.6531 32.5029 35.1858 32.9815 34.6071 33.283C34.0283 33.5846 33.3684 33.6934 32.7235 33.5936C32.0786 33.4938 31.4824 33.1906 31.0219 32.7282V32.7282L26.2969 27.4782" stroke="#229059" stroke-width="2.25" stroke-linecap="round" stroke-linejoin="round"/>
</svg>
