<svg width="44" height="44" viewBox="0 0 44 44" fill="none" xmlns="http://www.w3.org/2000/svg">
<rect opacity="0.15" width="44" height="44" rx="6" fill="#FF5A70"/>
<path d="M12.375 16.3125V30.3125C12.375 30.7766 12.5594 31.2217 12.8876 31.5499C13.2158 31.8781 13.6609 32.0625 14.125 32.0625H31.625C31.8571 32.0625 32.0796 31.9703 32.2437 31.8062C32.4078 31.6421 32.5 31.4196 32.5 31.1875V18.9375C32.5 18.7054 32.4078 18.4829 32.2437 18.3188C32.0796 18.1547 31.8571 18.0625 31.625 18.0625H14.125C13.6609 18.0625 13.2158 17.8781 12.8876 17.5499C12.5594 17.2217 12.375 16.7766 12.375 16.3125C12.375 15.8484 12.5594 15.4033 12.8876 15.0751C13.2158 14.7469 13.6609 14.5625 14.125 14.5625H28.125" fill="#FF5A70"/>
<path d="M12.375 16.3125V30.3125C12.375 30.7766 12.5594 31.2217 12.8876 31.5499C13.2158 31.8781 13.6609 32.0625 14.125 32.0625H31.625C31.8571 32.0625 32.0796 31.9703 32.2437 31.8062C32.4078 31.6421 32.5 31.4196 32.5 31.1875V18.9375C32.5 18.7054 32.4078 18.4829 32.2437 18.3188C32.0796 18.1547 31.8571 18.0625 31.625 18.0625H14.125C13.6609 18.0625 13.2158 17.8781 12.8876 17.5499C12.5594 17.2217 12.375 16.7766 12.375 16.3125ZM12.375 16.3125C12.375 15.8484 12.5594 15.4033 12.8876 15.0751C13.2158 14.7469 13.6609 14.5625 14.125 14.5625H28.125" stroke="#222222" stroke-width="1.3125" stroke-linecap="round" stroke-linejoin="round"/>
<path d="M15.3281 18.0625L21.0462 12.3069C21.2611 12.0906 21.5968 12.0508 21.8564 12.211L24.3081 13.724L25.9479 12.5433C26.2236 12.3448 26.6052 12.3895 26.8276 12.6464L31.5156 18.0625H18.5184H15.3281Z" fill="#FFE8EB"/>
<path d="M15.3281 18.0625L15.0178 17.7542L14.2768 18.5H15.3281V18.0625ZM21.0462 12.3069L21.3565 12.6153V12.6153L21.0462 12.3069ZM21.8564 12.211L22.0861 11.8387V11.8387L21.8564 12.211ZM25.9479 12.5433L25.6923 12.1882V12.1882L25.9479 12.5433ZM26.8276 12.6464L27.1584 12.3601V12.3601L26.8276 12.6464ZM31.5156 18.0625V18.5H32.4729L31.8464 17.7762L31.5156 18.0625ZM15.6385 18.3708L21.3565 12.6153L20.7358 11.9986L15.0178 17.7542L15.6385 18.3708ZM21.6266 12.5833L24.0783 14.0963L24.5378 13.3516L22.0861 11.8387L21.6266 12.5833ZM24.5637 14.079L26.2036 12.8983L25.6923 12.1882L24.0524 13.3689L24.5637 14.079ZM26.4968 12.9327L31.1848 18.3488L31.8464 17.7762L27.1584 12.3601L26.4968 12.9327ZM31.5156 17.625H18.5184V18.5H31.5156V17.625ZM18.5184 17.625H15.3281V18.5H18.5184V17.625ZM24.0457 13.3739L18.256 17.7124L18.7807 18.4126L24.5704 14.0741L24.0457 13.3739ZM26.2036 12.8983C26.2955 12.8322 26.4227 12.8471 26.4968 12.9327L27.1584 12.3601C26.7878 11.932 26.1518 11.8574 25.6923 12.1882L26.2036 12.8983ZM21.3565 12.6153C21.4282 12.5432 21.5401 12.5299 21.6266 12.5833L22.0861 11.8387C21.6536 11.5717 21.0941 11.638 20.7358 11.9986L21.3565 12.6153Z" fill="#222222"/>
<path d="M27.6875 26.375C28.2916 26.375 28.7812 25.8853 28.7812 25.2812C28.7812 24.6772 28.2916 24.1875 27.6875 24.1875C27.0834 24.1875 26.5938 24.6772 26.5938 25.2812C26.5938 25.8853 27.0834 26.375 27.6875 26.375Z" fill="#222222"/>
<path d="M19.5483 21.5687L15.1601 27.9434C15.1386 27.9746 15.1609 28.017 15.1988 28.017H17.7477C17.8097 28.017 17.8678 27.9864 17.9028 27.9352L19.626 25.4158C19.6632 25.3614 19.7434 25.3612 19.7809 25.4153L21.5269 27.9361C21.562 27.9868 21.6197 28.017 21.6814 28.017H24.2075C24.2453 28.017 24.2676 27.9746 24.2462 27.9434L19.858 21.5687C19.7833 21.4602 19.623 21.4602 19.5483 21.5687Z" fill="white"/>
<path d="M15.1601 27.9434L14.8898 27.7573H14.8898L15.1601 27.9434ZM19.5483 21.5687L19.278 21.3826V21.3826L19.5483 21.5687ZM19.858 21.5687L19.5877 21.7547L19.5877 21.7547L19.858 21.5687ZM24.2462 27.9434L24.5165 27.7573L24.5165 27.7573L24.2462 27.9434ZM21.5269 27.9361L21.7966 27.7492L21.7966 27.7492L21.5269 27.9361ZM19.7809 25.4153L20.0506 25.2285V25.2285L19.7809 25.4153ZM19.626 25.4158L19.8969 25.601L19.8969 25.601L19.626 25.4158ZM17.9028 27.9352L18.1736 28.1204H18.1736L17.9028 27.9352ZM15.4303 28.1294L19.8186 21.7547L19.278 21.3826L14.8898 27.7573L15.4303 28.1294ZM19.5877 21.7547L23.9759 28.1294L24.5165 27.7573L20.1282 21.3826L19.5877 21.7547ZM24.2075 27.6889H21.6814V28.3451H24.2075V27.6889ZM21.7966 27.7492L20.0506 25.2285L19.5111 25.6022L21.2571 28.1229L21.7966 27.7492ZM19.3552 25.2305L17.632 27.7499L18.1736 28.1204L19.8969 25.601L19.3552 25.2305ZM17.7477 27.6889H15.1988V28.3451H17.7477V27.6889ZM17.632 27.7499C17.6581 27.7117 17.7014 27.6889 17.7477 27.6889V28.3451C17.918 28.3451 18.0775 28.2611 18.1736 28.1204L17.632 27.7499ZM20.0506 25.2285C19.8822 24.9853 19.5222 24.9863 19.3552 25.2305L19.8969 25.601C19.8042 25.7365 19.6046 25.7371 19.5111 25.6022L20.0506 25.2285ZM21.6814 27.6889C21.7274 27.6889 21.7704 27.7114 21.7966 27.7492L21.2571 28.1229C21.3535 28.2621 21.5121 28.3451 21.6814 28.3451V27.6889ZM23.9759 28.1294C23.8475 27.9429 23.981 27.6889 24.2075 27.6889V28.3451C24.5096 28.3451 24.6878 28.0062 24.5165 27.7573L23.9759 28.1294ZM19.8186 21.7547C19.7629 21.8356 19.6434 21.8356 19.5877 21.7547L20.1282 21.3826C19.9231 21.0847 19.4831 21.0847 19.278 21.3826L19.8186 21.7547ZM14.8898 27.7573C14.7185 28.0062 14.8966 28.3451 15.1988 28.3451V27.6889C15.4252 27.6889 15.5587 27.9429 15.4303 28.1294L14.8898 27.7573Z" fill="#222222"/>
<path d="M19.6324 25.4085C20.4465 24.163 21.0462 23.9868 21.806 24.3864" stroke="#222222" stroke-width="0.65625"/>
</svg>
