<svg width="48" height="48" viewBox="0 0 48 48" fill="none" xmlns="http://www.w3.org/2000/svg">
<rect width="48" height="48" rx="6" fill="#FFE8EB"/>
<path d="M31.2377 19.6631H34.5V16.2777" stroke="#222222" stroke-width="0.577854" stroke-linecap="round" stroke-linejoin="round"/>
<path d="M13.9596 22.704C13.9596 20.8837 14.5426 19.1041 15.6348 17.5905C16.727 16.077 18.2794 14.8973 20.0956 14.2006C21.9119 13.504 23.9104 13.3217 25.8386 13.6769C27.7667 14.032 29.5378 14.9086 30.9279 16.1958L34.2411 19.2638" stroke="#222222" stroke-width="0.693425" stroke-linecap="round" stroke-linejoin="round"/>
<path d="M16.7623 28.5493H13.5V31.9347" stroke="#222222" stroke-width="0.577854" stroke-linecap="round" stroke-linejoin="round"/>
<path d="M33.8362 25.296C33.8362 27.1163 33.2532 28.8959 32.161 30.4095C31.0688 31.923 29.5165 33.1027 27.7002 33.7994C25.884 34.496 23.8854 34.6783 21.9573 34.3231C20.0291 33.968 18.258 33.0914 16.8679 31.8042L13.5547 28.7362" stroke="#222222" stroke-width="0.693425" stroke-linecap="round" stroke-linejoin="round"/>
<path d="M24.0018 19.8811V21.0581" stroke="#222222" stroke-width="0.964294" stroke-linecap="round" stroke-linejoin="round"/>
<path d="M24.0018 26.9431V28.1201" stroke="#222222" stroke-width="0.964294" stroke-linecap="round" stroke-linejoin="round"/>
<path d="M23.9972 31.0619C27.7555 31.0619 30.8022 27.9003 30.8022 24.0002C30.8022 20.1001 27.7555 16.9385 23.9972 16.9385C20.239 16.9385 17.1923 20.1001 17.1923 24.0002C17.1923 27.9003 20.239 31.0619 23.9972 31.0619Z" fill="#FF5A70" stroke="#222222" stroke-width="0.964294" stroke-linecap="round" stroke-linejoin="round"/>
<path d="M22.2985 26.9421H24.8503C25.2263 26.9421 25.5869 26.7871 25.8528 26.5112C26.1186 26.2353 26.268 25.8611 26.268 25.4709C26.268 25.0808 26.1186 24.7066 25.8528 24.4307C25.5869 24.1548 25.2263 23.9998 24.8503 23.9998H23.1491C22.7731 23.9998 22.4125 23.8448 22.1466 23.5689C21.8807 23.2929 21.7314 22.9187 21.7314 22.5286C21.7314 22.1384 21.8807 21.7642 22.1466 21.4883C22.4125 21.2124 22.7731 21.0574 23.1491 21.0574H25.7009" stroke="#222222" stroke-width="0.964294" stroke-linecap="round" stroke-linejoin="round"/>
</svg>
