<svg width="48" height="48" viewBox="0 0 48 48" fill="none" xmlns="http://www.w3.org/2000/svg">
<rect opacity="0.15" width="48" height="48" rx="6" fill="#FFC6BD"/>
<path d="M22.25 30.4167C27.0825 30.4167 31 28.5885 31 26.3333C31 24.0782 27.0825 22.25 22.25 22.25C17.4175 22.25 13.5 24.0782 13.5 26.3333C13.5 28.5885 17.4175 30.4167 22.25 30.4167Z" stroke="#222222" stroke-width="0.948387" stroke-linecap="round" stroke-linejoin="round"/>
<path d="M22.25 30.4159V34.4992" stroke="#222222" stroke-width="0.948387" stroke-linecap="round" stroke-linejoin="round"/>
<path d="M13.5 26.3334V30.4167C13.5 32.4584 16.8654 34.5001 22.25 34.5001C27.6346 34.5001 31 32.4584 31 30.4167V26.3334" stroke="#222222" stroke-width="0.948387" stroke-linecap="round" stroke-linejoin="round"/>
<path d="M27.6329 29.5752V33.6586" stroke="#222222" stroke-width="0.948387" stroke-linecap="round" stroke-linejoin="round"/>
<path d="M16.8671 29.5752V33.6586" stroke="#222222" stroke-width="0.948387" stroke-linecap="round" stroke-linejoin="round"/>
<path d="M26.625 29.25C30.9742 29.25 34.5 25.7242 34.5 21.375C34.5 17.0258 30.9742 13.5 26.625 13.5C22.2758 13.5 18.75 17.0258 18.75 21.375C18.75 25.7242 22.2758 29.25 26.625 29.25Z" fill="#FF5A70" stroke="#222222" stroke-width="0.9625" stroke-linecap="round" stroke-linejoin="round"/>
<path d="M26.6288 24.6566V25.9691" stroke="#222222" stroke-width="0.948387" stroke-linecap="round" stroke-linejoin="round"/>
<path d="M26.6288 16.7812V18.0938" stroke="#222222" stroke-width="0.948387" stroke-linecap="round" stroke-linejoin="round"/>
<path d="M24.6562 24.6562H27.6094C28.0445 24.6562 28.4618 24.4834 28.7695 24.1757C29.0771 23.868 29.25 23.4507 29.25 23.0156C29.25 22.5805 29.0771 22.1632 28.7695 21.8555C28.4618 21.5479 28.0445 21.375 27.6094 21.375H25.6406C25.2055 21.375 24.7882 21.2021 24.4805 20.8945C24.1729 20.5868 24 20.1695 24 19.7344C24 19.2993 24.1729 18.882 24.4805 18.5743C24.7882 18.2666 25.2055 18.0938 25.6406 18.0938H28.5937" stroke="#222222" stroke-width="0.9625" stroke-linecap="round" stroke-linejoin="round"/>
</svg>
