<svg width="48" height="48" viewBox="0 0 48 48" fill="none" xmlns="http://www.w3.org/2000/svg">
<rect width="48" height="48" rx="6" fill="#FCEBE8"/>
<path d="M32.0649 15.3856L15.6036 18.6343C15.2248 18.709 14.983 19.0548 15.0635 19.4065L17.3962 29.5959C17.4767 29.9476 17.849 30.1721 18.2278 30.0973L34.6892 26.8486C35.068 26.7739 35.3098 26.4281 35.2292 26.0764L32.8966 15.887C32.8161 15.5353 32.4437 15.3108 32.0649 15.3856Z" fill="#FF5A70" stroke="#222222" stroke-width="1.05316" stroke-linecap="round" stroke-linejoin="round"/>
<path d="M25.4263 26.006L26.798 25.7353" stroke="#222222" stroke-width="1.05316" stroke-linecap="round" stroke-linejoin="round"/>
<path d="M29.836 21.0807H13.3134C12.9332 21.0807 12.625 21.3709 12.625 21.729V32.1019C12.625 32.46 12.9332 32.7502 13.3134 32.7502H29.836C30.2162 32.7502 30.5244 32.46 30.5244 32.1019V21.729C30.5244 21.3709 30.2162 21.0807 29.836 21.0807Z" fill="#FFE8EB" stroke="#222222" stroke-width="1.05316" stroke-linecap="round" stroke-linejoin="round"/>
<path d="M25.0168 30.1567H27.7705" stroke="#222222" stroke-width="1.05316" stroke-linecap="round" stroke-linejoin="round"/>
<path d="M20.8845 30.1567H22.2614" stroke="#222222" stroke-width="1.05316" stroke-linecap="round" stroke-linejoin="round"/>
<path d="M12.6353 24.3966H30.5354" stroke="#222222" stroke-width="1.05316" stroke-linecap="round" stroke-linejoin="round"/>
</svg>
