<svg width="44" height="45" viewBox="0 0 44 45" fill="none" xmlns="http://www.w3.org/2000/svg">
<rect opacity="0.15" y="0.0644531" width="44" height="44" rx="6" fill="#FF5A70"/>
<path d="M11.4377 18.0227H32.5627L22.0002 11.5L11.4377 18.0227Z" stroke="black" stroke-width="1.3125" stroke-linecap="round" stroke-linejoin="round"/>
<path d="M14.6872 18.0226V26.176" stroke="black" stroke-width="1.3125" stroke-linecap="round" stroke-linejoin="round"/>
<path d="M19.5622 18.0226V26.176" stroke="black" stroke-width="1.3125" stroke-linecap="round" stroke-linejoin="round"/>
<path d="M24.4378 18.0226V26.176" stroke="black" stroke-width="1.3125" stroke-linecap="round" stroke-linejoin="round"/>
<path d="M29.3128 18.0226V26.176" stroke="black" stroke-width="1.3125" stroke-linecap="round" stroke-linejoin="round"/>
<path d="M12.2503 26.1761H31.7503" stroke="black" stroke-width="1.3125" stroke-linecap="round" stroke-linejoin="round"/>
<path d="M10.625 29.4375H33.375" stroke="black" stroke-width="1.3125" stroke-linecap="round" stroke-linejoin="round"/>
<path d="M28.7812 33.375C31.5599 33.375 33.8125 31.1224 33.8125 28.3438C33.8125 25.5651 31.5599 23.3125 28.7812 23.3125C26.0026 23.3125 23.75 25.5651 23.75 28.3438C23.75 31.1224 26.0026 33.375 28.7812 33.375Z" fill="#FF5A70" stroke="black" stroke-width="0.875" stroke-linecap="round" stroke-linejoin="round"/>
<path d="M29.0991 30.1227L30.8779 28.3439L29.0991 26.5651" fill="#FF5A70"/>
<path d="M29.0991 30.1227L30.8779 28.3439L29.0991 26.5651" stroke="black" stroke-width="0.875" stroke-linecap="round" stroke-linejoin="round"/>
<path d="M26.6849 28.3438H30.8776" stroke="black" stroke-width="0.875" stroke-linecap="round" stroke-linejoin="round"/>
</svg>
