<svg width="28" height="28" viewBox="0 0 28 28" fill="none" xmlns="http://www.w3.org/2000/svg">
<rect width="28" height="28" rx="6" fill="#FFF0F2"/>
<path d="M17.125 21.5H8.375C8.20924 21.5 8.05027 21.4342 7.93306 21.3169C7.81585 21.1997 7.75 21.0408 7.75 20.875V9.625C7.75 9.45924 7.81585 9.30027 7.93306 9.18306C8.05027 9.06585 8.20924 9 8.375 9H12.9681C14.029 9 15.0464 9.42143 15.7966 10.1716L16.5784 10.9534C17.3286 11.7036 17.75 12.721 17.75 13.7819V20.875C17.75 21.0408 17.6842 21.1997 17.5669 21.3169C17.4497 21.4342 17.2908 21.5 17.125 21.5Z" fill="#FFF0F2" stroke="#FF5A70" stroke-width="0.88" stroke-linecap="round" stroke-linejoin="round"/>
<path d="M9.81 8.99962C9.81 9.24262 10.007 9.43962 10.25 9.43962C10.493 9.43962 10.69 9.24262 10.69 8.99962H9.81ZM10.875 6.49962V6.93962V6.49962ZM17.75 18.5596C17.507 18.5596 17.31 18.7566 17.31 18.9996C17.31 19.2426 17.507 19.4396 17.75 19.4396V18.5596ZM19.8839 9.2585L19.5728 9.56963L19.8839 9.2585ZM17.4911 6.86574L17.8022 6.55461V6.55461L17.4911 6.86574ZM10.69 8.99962V7.12462H9.81V8.99962H10.69ZM10.69 7.12462C10.69 7.07555 10.7095 7.0285 10.7442 6.9938L10.1219 6.37155C9.92221 6.57128 9.81 6.84216 9.81 7.12462H10.69ZM10.7442 6.9938C10.7789 6.95911 10.8259 6.93962 10.875 6.93962V6.05962C10.5925 6.05962 10.3217 6.17182 10.1219 6.37155L10.7442 6.9938ZM10.875 6.93962H16.6072V6.05962H10.875V6.93962ZM17.18 7.17686L19.5728 9.56963L20.195 8.94738L17.8022 6.55461L17.18 7.17686ZM19.81 10.1424V18.3746H20.69V10.1424H19.81ZM19.81 18.3746C19.81 18.4237 19.7905 18.4707 19.7558 18.5054L20.3781 19.1277C20.5778 18.928 20.69 18.6571 20.69 18.3746H19.81ZM19.7558 18.5054C19.7211 18.5401 19.6741 18.5596 19.625 18.5596V19.4396C19.9075 19.4396 20.1783 19.3274 20.3781 19.1277L19.7558 18.5054ZM19.625 18.5596H17.75V19.4396H19.625V18.5596ZM19.5728 9.56963C19.7247 9.72153 19.81 9.92756 19.81 10.1424H20.69C20.69 9.69417 20.5119 9.26431 20.195 8.94738L19.5728 9.56963ZM16.6072 6.93962C16.8221 6.93962 17.0281 7.02496 17.18 7.17686L17.8022 6.55461C17.4853 6.23767 17.0554 6.05962 16.6072 6.05962V6.93962Z" fill="#FF5A70"/>
<path d="M14.625 18.6869H10.875M14.625 15.8744H10.875" stroke="#FF5A70" stroke-width="0.88" stroke-linecap="round"/>
</svg>
