<svg width="17" height="17" viewBox="0 0 17 17" fill="none" xmlns="http://www.w3.org/2000/svg">
<path d="M16.9963 8.60148C16.9783 7.94029 17.0007 7.28127 16.8406 6.62723C16.3825 4.75477 15.4159 3.20233 13.9488 1.96149C13.2104 1.33703 12.3817 0.857938 11.4702 0.528273C10.8 0.285772 10.1193 0.0902765 9.40021 0.0585241C9.15855 0.0476286 8.9172 0.0199231 8.67585 0H7.77274C7.6463 0.0205457 7.51769 0.0326863 7.39343 0.0635049C6.76593 0.219777 6.11942 0.326241 5.51714 0.550998C4.06033 1.09421 2.83926 1.98453 1.86701 3.20762C0.773309 4.58293 0.158258 6.14814 0.0243483 7.89546C-0.0435409 8.78079 0.0237254 9.66395 0.242341 10.5281C0.587081 11.8894 1.20369 13.111 2.14448 14.1628C2.17594 14.198 2.18341 14.2889 2.16099 14.3334C1.77234 15.1008 1.28528 15.7819 0.505178 16.2059C0.372825 16.2778 0.246389 16.3855 0.272237 16.5595C0.29933 16.7407 0.461891 16.7877 0.609191 16.8394C0.623517 16.8444 0.640333 16.8406 0.655593 16.8428C1.11213 16.9147 1.56556 16.8674 2.01556 16.7939C2.67576 16.6862 3.28085 16.4194 3.84171 16.0711C4.09956 15.9108 4.31133 15.9067 4.55361 16.0481C4.567 16.0558 4.58133 16.0621 4.59565 16.068C5.09953 16.2741 5.59655 16.4994 6.10914 16.6809C6.69087 16.887 7.30343 16.9421 7.91817 16.9776C8.78485 17.0277 9.64312 17.0053 10.4911 16.7949C12.1136 16.392 13.5122 15.602 14.671 14.3941C15.291 13.7479 15.7964 13.0229 16.1869 12.2163C16.7397 11.0738 17.0306 9.87625 16.9963 8.60148ZM8.87672 3.24902C9.61602 3.22941 10.2442 3.83706 10.2585 4.60722C10.2734 5.43216 9.54408 6.06689 8.87609 6.04728C8.18942 6.06471 7.4744 5.35495 7.46194 4.64395C7.44918 3.9124 8.10129 3.26957 8.87672 3.24902ZM10.8056 12.7299C10.659 12.8965 10.5098 13.0627 10.3451 13.2106C9.89256 13.6168 9.35723 13.7939 8.74935 13.7606C8.44416 13.7438 8.13866 13.7398 7.83347 13.7276C7.78769 13.7258 7.74129 13.7164 7.69707 13.7043C7.02502 13.5184 6.55167 12.7642 6.6644 12.0706C6.81918 11.1202 6.96772 10.1689 7.12032 9.21785C7.1879 8.79604 7.25797 8.37486 7.32835 7.95336C7.36042 7.7616 7.27696 7.59132 7.07236 7.50789C6.92163 7.44657 6.75627 7.42073 6.59776 7.37808C6.53859 7.36189 6.47817 7.34726 6.4215 7.32392C6.25209 7.25418 6.1462 7.12531 6.16053 7.01293C6.18108 6.84981 6.34427 6.69696 6.52956 6.69478C7.03717 6.68856 7.54509 6.6926 8.0527 6.6926C8.0527 6.69073 8.05302 6.68918 8.05302 6.68731C8.5298 6.68731 9.00658 6.68669 9.48336 6.68731C9.85332 6.68824 9.9617 6.89868 9.94332 7.24018C9.92464 7.58416 9.86858 7.92752 9.81128 8.26808C9.67706 9.0647 9.52478 9.85819 9.3946 10.6557C9.31582 11.1383 9.26412 11.6254 9.20246 12.1107C9.1953 12.1665 9.20121 12.2244 9.20402 12.281C9.21896 12.5783 9.39896 12.7256 9.69045 12.6565C9.89412 12.6082 10.0912 12.5316 10.2906 12.4647C10.3778 12.4351 10.4615 12.3763 10.5493 12.3707C10.6428 12.3645 10.7683 12.3757 10.8278 12.4329C10.9093 12.5117 10.8822 12.6431 10.8056 12.7299Z" fill="#FF5A70"/>
</svg>
