<svg width="20" height="20" viewBox="0 0 20 20" fill="none" xmlns="http://www.w3.org/2000/svg">
<path fill-rule="evenodd" clip-rule="evenodd" d="M13.1099 12.3305H13.9771L19.455 17.8193L17.8193 19.455L12.3305 13.9771V13.1099L12.0341 12.8025C10.7826 13.8783 9.15792 14.526 7.39051 14.526C3.44952 14.526 0.255005 11.3315 0.255005 7.39051C0.255005 3.44952 3.44952 0.255005 7.39051 0.255005C11.3315 0.255005 14.526 3.44952 14.526 7.39051C14.526 9.15792 13.8783 10.7826 12.8025 12.0341L13.1099 12.3305ZM2.45057 7.39054C2.45057 10.124 4.65709 12.3305 7.39054 12.3305C10.124 12.3305 12.3305 10.124 12.3305 7.39054C12.3305 4.65709 10.124 2.45057 7.39054 2.45057C4.65709 2.45057 2.45057 4.65709 2.45057 7.39054Z" fill="#322B2B"/>
</svg>
