<svg width="24" height="24" viewBox="0 0 24 24" fill="none" xmlns="http://www.w3.org/2000/svg">
<path d="M11.1345 7.48535C11.5197 6.81992 12.4803 6.81992 12.8655 7.48535L18.6613 17.4991C19.0471 18.1657 18.5661 19 17.7958 19H6.2042C5.43393 19 4.95286 18.1657 5.33872 17.4991L11.1345 7.48535ZM12.8654 3.49482C12.4803 2.82954 11.5197 2.82954 11.1346 3.49483L1.86902 19.499C1.48306 20.1656 1.96411 21 2.73445 21H21.2656C22.0359 21 22.5169 20.1656 22.131 19.499L12.8654 3.49482ZM13 17C13 16.4477 12.5523 16 12 16V16C11.4477 16 11 16.4477 11 17V17C11 17.5523 11.4477 18 12 18V18C12.5523 18 13 17.5523 13 17V17ZM13 11C13 10.4477 12.5523 10 12 10V10C11.4477 10 11 10.4477 11 11V13C11 13.5523 11.4477 14 12 14V14C12.5523 14 13 13.5523 13 13V11Z" fill="#F29D42"/>
</svg>
