<svg width="92" height="62" viewBox="0 0 92 62" fill="none" xmlns="http://www.w3.org/2000/svg">
<circle cx="1.01493" cy="60.5573" r="1.01493" transform="rotate(-90 1.01493 60.5573)" fill="#CD152E" fill-opacity="0.6"/>
<circle cx="1.01493" cy="45.6716" r="1.01493" transform="rotate(-90 1.01493 45.6716)" fill="#CD152E" fill-opacity="0.6"/>
<circle cx="1.01493" cy="30.7863" r="1.01493" transform="rotate(-90 1.01493 30.7863)" fill="#CD152E" fill-opacity="0.6"/>
<circle cx="1.01493" cy="15.9006" r="1.01493" transform="rotate(-90 1.01493 15.9006)" fill="#CD152E" fill-opacity="0.6"/>
<circle cx="1.01493" cy="1.01535" r="1.01493" transform="rotate(-90 1.01493 1.01535)" fill="#CD152E" fill-opacity="0.6"/>
<circle cx="15.9007" cy="60.5573" r="1.01493" transform="rotate(-90 15.9007 60.5573)" fill="#CD152E" fill-opacity="0.6"/>
<circle cx="15.9007" cy="45.6716" r="1.01493" transform="rotate(-90 15.9007 45.6716)" fill="#CD152E" fill-opacity="0.6"/>
<circle cx="15.9007" cy="30.7863" r="1.01493" transform="rotate(-90 15.9007 30.7863)" fill="#CD152E" fill-opacity="0.6"/>
<circle cx="15.9007" cy="15.9006" r="1.01493" transform="rotate(-90 15.9007 15.9006)" fill="#CD152E" fill-opacity="0.6"/>
<circle cx="15.9007" cy="1.01486" r="1.01493" transform="rotate(-90 15.9007 1.01486)" fill="#CD152E" fill-opacity="0.6"/>
<circle cx="30.7859" cy="60.5573" r="1.01493" transform="rotate(-90 30.7859 60.5573)" fill="#CD152E" fill-opacity="0.6"/>
<circle cx="30.7859" cy="45.6716" r="1.01493" transform="rotate(-90 30.7859 45.6716)" fill="#CD152E" fill-opacity="0.6"/>
<circle cx="30.7859" cy="30.7863" r="1.01493" transform="rotate(-90 30.7859 30.7863)" fill="#CD152E" fill-opacity="0.6"/>
<circle cx="30.7859" cy="15.9006" r="1.01493" transform="rotate(-90 30.7859 15.9006)" fill="#CD152E" fill-opacity="0.6"/>
<circle cx="30.7859" cy="1.01486" r="1.01493" transform="rotate(-90 30.7859 1.01486)" fill="#CD152E" fill-opacity="0.6"/>
<circle cx="45.6717" cy="60.5573" r="1.01493" transform="rotate(-90 45.6717 60.5573)" fill="#CD152E" fill-opacity="0.6"/>
<circle cx="45.6717" cy="45.6716" r="1.01493" transform="rotate(-90 45.6717 45.6716)" fill="#CD152E" fill-opacity="0.6"/>
<circle cx="45.6717" cy="30.7863" r="1.01493" transform="rotate(-90 45.6717 30.7863)" fill="#CD152E" fill-opacity="0.6"/>
<circle cx="45.6717" cy="15.9006" r="1.01493" transform="rotate(-90 45.6717 15.9006)" fill="#CD152E" fill-opacity="0.6"/>
<circle cx="45.6717" cy="1.01486" r="1.01493" transform="rotate(-90 45.6717 1.01486)" fill="#CD152E" fill-opacity="0.6"/>
<circle cx="60.5574" cy="60.5573" r="1.01493" transform="rotate(-90 60.5574 60.5573)" fill="#CD152E" fill-opacity="0.6"/>
<circle cx="60.5574" cy="45.6716" r="1.01493" transform="rotate(-90 60.5574 45.6716)" fill="#CD152E" fill-opacity="0.6"/>
<circle cx="60.5574" cy="30.7863" r="1.01493" transform="rotate(-90 60.5574 30.7863)" fill="#CD152E" fill-opacity="0.6"/>
<circle cx="60.5574" cy="15.9006" r="1.01493" transform="rotate(-90 60.5574 15.9006)" fill="#CD152E" fill-opacity="0.6"/>
<circle cx="60.5574" cy="1.01486" r="1.01493" transform="rotate(-90 60.5574 1.01486)" fill="#CD152E" fill-opacity="0.6"/>
<circle cx="75.4427" cy="60.5573" r="1.01493" transform="rotate(-90 75.4427 60.5573)" fill="#CD152E" fill-opacity="0.6"/>
<circle cx="75.4427" cy="45.6716" r="1.01493" transform="rotate(-90 75.4427 45.6716)" fill="#CD152E" fill-opacity="0.6"/>
<circle cx="75.4427" cy="30.7863" r="1.01493" transform="rotate(-90 75.4427 30.7863)" fill="#CD152E" fill-opacity="0.6"/>
<circle cx="75.4427" cy="15.9006" r="1.01493" transform="rotate(-90 75.4427 15.9006)" fill="#CD152E" fill-opacity="0.6"/>
<circle cx="75.4427" cy="1.01486" r="1.01493" transform="rotate(-90 75.4427 1.01486)" fill="#CD152E" fill-opacity="0.6"/>
<circle cx="90.3284" cy="60.5573" r="1.01493" transform="rotate(-90 90.3284 60.5573)" fill="#CD152E" fill-opacity="0.6"/>
<circle cx="90.3284" cy="45.6716" r="1.01493" transform="rotate(-90 90.3284 45.6716)" fill="#CD152E" fill-opacity="0.6"/>
<circle cx="90.3284" cy="30.7863" r="1.01493" transform="rotate(-90 90.3284 30.7863)" fill="#CD152E" fill-opacity="0.6"/>
<circle cx="90.3284" cy="15.9006" r="1.01493" transform="rotate(-90 90.3284 15.9006)" fill="#CD152E" fill-opacity="0.6"/>
<circle cx="90.3284" cy="1.01486" r="1.01493" transform="rotate(-90 90.3284 1.01486)" fill="#CD152E" fill-opacity="0.6"/>
</svg>
