<svg width="56" height="82" viewBox="0 0 56 82" fill="none" xmlns="http://www.w3.org/2000/svg">
<path d="M39.1022 79.9155H16.8979V57.8447H39.1022V79.9155Z" stroke="#322B2B" stroke-width="3.06897" stroke-linecap="round" stroke-linejoin="round"/>
<path d="M28.1135 58.4678V79.2929M54 79.9157H2V2H54V79.9157ZM28.0387 58.4678V79.3214V58.4678Z" stroke="#322B2B" stroke-width="3.06897" stroke-linecap="round" stroke-linejoin="round"/>
<path d="M34.4999 44.8276V50.8635M15 8.61328V14.6492V8.61328ZM21.4999 8.61328V14.6492V8.61328ZM28 8.61328V14.6492V8.61328ZM41 8.61328V14.6492V8.61328ZM15 20.6848V26.7204V20.6848ZM21.4999 20.6848V26.7204V20.6848ZM28 20.6848V26.7204V20.6848ZM41 20.6848V26.7204V20.6848ZM15 32.7563V38.7919V32.7563ZM21.4999 32.7563V38.7919V32.7563ZM28 32.7563V38.7919V32.7563ZM41 32.7563V38.7919V32.7563ZM15 44.8276V50.8635V44.8276ZM21.4999 44.8276V50.8635V44.8276ZM28 44.8276V50.8635V44.8276ZM34.4999 8.61328V14.6492V8.61328ZM34.4999 20.6848V26.7204V20.6848ZM34.4999 32.7563V38.7919V32.7563Z" stroke="#FF5A6F" stroke-width="3.06897" stroke-linecap="round" stroke-linejoin="round"/>
<path d="M47.5 44.8276V50.8635M47.5 8.61328V14.6492V8.61328ZM47.5 20.6848V26.7204V20.6848ZM47.5 32.7563V38.7919V32.7563Z" stroke="#FF5A6F" stroke-width="3.06897" stroke-linecap="round" stroke-linejoin="round"/>
<path d="M8.5 44.8276V50.8635M8.5 8.61328V14.6492V8.61328ZM8.5 20.6848V26.7204V20.6848ZM8.5 32.7563V38.7919V32.7563Z" stroke="#FF5A6F" stroke-width="3.06897" stroke-linecap="round" stroke-linejoin="round"/>
<path d="M41 44.8276V50.8635" stroke="#FF5A6F" stroke-width="3.06897" stroke-linecap="round" stroke-linejoin="round"/>
</svg>
