<svg width="67" height="64" viewBox="0 0 67 64" fill="none" xmlns="http://www.w3.org/2000/svg">
<path d="M32.328 61.9999H2L2.09426 59.0442C2.09426 47.974 11.07 38.9985 22.1401 38.9985H45.0628C56.1331 38.9985 65.1084 47.974 65.1084 59.0442L65.0141 61.9999H32.328Z" stroke="#322B2B" stroke-width="3.00278" stroke-linecap="round" stroke-linejoin="round"/>
<path d="M44.7199 7.1849C46.9163 9.79547 48.1183 13.0989 48.1132 16.5106C48.1132 16.5106 48.1132 16.5106 48.1132 16.5106C48.1132 24.5239 41.6155 31.0211 33.6024 31.0211C25.5892 31.0211 19.0918 24.5239 19.0918 16.5106C19.0918 8.49745 25.5878 2 33.6024 2C38.065 2 42.0573 4.01477 44.7199 7.1849Z" stroke="#FF5A6F" stroke-width="3.00278" stroke-linecap="round" stroke-linejoin="round"/>
</svg>
