<svg width="57" height="56" viewBox="0 0 57 56" fill="none" xmlns="http://www.w3.org/2000/svg">
<rect x="0.817505" width="56" height="56" rx="8" fill="#FF5A70" fill-opacity="0.2"/>
<path d="M25.2175 26.8C25.8775 26.8 26.4175 27.34 26.4175 28V32.8C26.4175 33.46 25.8775 34 25.2175 34C24.5575 34 24.0175 33.46 24.0175 32.8V28C24.0175 27.34 24.5575 26.8 25.2175 26.8ZM32.4175 26.8C33.0775 26.8 33.6175 27.34 33.6175 28V32.8C33.6175 33.46 33.0775 34 32.4175 34C31.7575 34 31.2175 33.46 31.2175 32.8V28C31.2175 27.34 31.7575 26.8 32.4175 26.8ZM36.0175 36.4C36.0175 37.06 35.4775 37.6 34.8175 37.6H22.8175C22.1575 37.6 21.6175 37.06 21.6175 36.4V23.2H36.0175V36.4ZM26.4175 18.796C26.4175 18.604 26.6695 18.4 27.0175 18.4H30.6175C30.9655 18.4 31.2175 18.604 31.2175 18.796V20.8H26.4175V18.796ZM39.6175 20.8H38.4175H33.6175V18.796C33.6175 17.248 32.2735 16 30.6175 16H27.0175C25.3615 16 24.0175 17.248 24.0175 18.796V20.8H19.2175H18.0175C17.3575 20.8 16.8175 21.34 16.8175 22C16.8175 22.66 17.3575 23.2 18.0175 23.2H19.2175V36.4C19.2175 38.38 20.8375 40 22.8175 40H34.8175C36.7975 40 38.4175 38.38 38.4175 36.4V23.2H39.6175C40.2775 23.2 40.8175 22.66 40.8175 22C40.8175 21.34 40.2775 20.8 39.6175 20.8Z" fill="#FF5A70"/>
</svg>
