<svg width="57" height="54" viewBox="0 0 57 54" fill="none" xmlns="http://www.w3.org/2000/svg">
<rect x="0.5" y="0.0909119" width="56" height="53.8182" rx="8" fill="#EBEBEB"/>
<path d="M34.7209 24.416L31.8381 27.4375L30.0174 25.3701C29.5622 24.8931 28.8035 24.8931 28.3483 25.3701C27.8932 25.8472 27.8932 26.6424 28.3483 27.1195L31.0795 29.982C31.5346 30.4591 32.2933 30.4591 32.7485 29.982L36.5417 26.0063C36.9968 25.5292 36.9968 24.734 36.5417 24.2569C35.9347 23.7798 35.3278 23.7798 34.7209 24.416Z" fill="#898989"/>
<path d="M24.0998 14.8739H15.7548C14.9962 14.8739 14.541 15.351 14.541 16.1462C14.541 16.9413 14.9962 17.4184 15.7548 17.4184H21.5205C19.6997 19.8039 18.4859 22.6664 18.3342 25.847H11.5064C10.7478 25.847 10.2926 26.3241 10.2926 26.9602C10.2926 27.7554 10.7478 28.2325 11.5064 28.2325H18.3342C18.4859 31.2541 19.6997 34.2756 21.5205 36.6611L12.1133 36.8201C11.3547 36.8201 10.8995 37.2972 10.8995 38.0924C10.8995 38.8875 11.6582 39.2056 12.2651 39.2056C14.6927 39.5236 24.0998 39.2056 24.2516 39.2056C26.6792 40.9549 29.562 41.9091 32.4449 41.9091C40.3347 41.9091 46.7073 35.2298 46.7073 26.9602C46.5556 14.8739 33.3552 7.87659 24.0998 14.8739ZM32.2932 39.2056C25.7689 39.2056 20.4584 33.6395 20.4584 26.8012C20.4584 23.4616 21.8239 20.1219 24.0998 17.8955C31.6862 10.5801 43.9762 15.9871 43.9762 26.8012C44.1279 33.6395 38.8175 39.2056 32.2932 39.2056Z" fill="#898989"/>
<path d="M32.2933 20.4404C33.0475 20.4404 33.6588 19.7996 33.6588 19.0091C33.6588 18.2187 33.0475 17.5779 32.2933 17.5779C31.5391 17.5779 30.9277 18.2187 30.9277 19.0091C30.9277 19.7996 31.5391 20.4404 32.2933 20.4404Z" fill="#898989"/>
<path d="M32.2933 36.3429C33.0475 36.3429 33.6588 35.7021 33.6588 34.9116C33.6588 34.1211 33.0475 33.4803 32.2933 33.4803C31.5391 33.4803 30.9277 34.1211 30.9277 34.9116C30.9277 35.7021 31.5391 36.3429 32.2933 36.3429Z" fill="#898989"/>
<path d="M39.8796 25.5291C39.1209 25.5291 38.514 26.0062 38.514 26.9604C38.514 27.7555 38.9692 28.3916 39.8796 28.3916C40.6382 28.3916 41.2451 27.9146 41.2451 26.9604C41.2451 26.1652 40.79 25.5291 39.8796 25.5291Z" fill="#898989"/>
<path d="M24.7066 28.2326C25.4608 28.2326 26.0722 27.5918 26.0722 26.8013C26.0722 26.0108 25.4608 25.37 24.7066 25.37C23.9524 25.37 23.3411 26.0108 23.3411 26.8013C23.3411 27.5918 23.9524 28.2326 24.7066 28.2326Z" fill="#898989"/>
</svg>
