<svg width="17" height="17" viewBox="0 0 17 17" fill="none" xmlns="http://www.w3.org/2000/svg">
<path d="M14.3269 0.406682C14.8739 0.395105 15.4888 0.61577 16.0117 1.11183C16.1393 1.23286 16.2605 1.37038 16.3557 1.52193C16.491 1.73733 16.4356 1.92116 16.2102 2.00501C16.0355 2.06991 15.8485 2.09763 15.6658 2.13341C13.2375 2.60771 10.9864 3.56194 9.01754 5.20552C8.24903 5.84717 7.54047 6.58354 6.85083 7.32832C5.19518 9.11644 3.70913 11.0614 2.469 13.2221C1.94127 14.1419 1.47477 15.0972 1.10254 16.1058C1.03714 16.2833 0.982952 16.3044 0.830019 16.2016C0.597253 16.0451 0.539222 15.7872 0.586994 15.5287C0.669071 15.0849 0.763652 14.6394 0.90376 14.2142C1.5607 12.2198 2.56294 10.4352 3.73574 8.76141C5.13939 6.75789 6.71489 4.92978 8.51257 3.34373C9.65716 2.33373 10.8813 1.45493 12.2599 0.863096C12.9701 0.557885 13.6001 0.412295 14.3269 0.406682Z" fill="#FF4600"/>
<path d="M3.54396 5.59785C3.55774 6.28433 3.44907 6.95136 3.24642 7.59928C3.20449 7.73275 3.13378 7.86186 3.05327 7.97253C2.96633 8.09192 2.85001 8.09159 2.76767 7.96952C2.68502 7.84677 2.60084 7.70592 2.5739 7.56038C2.25402 5.83025 1.94331 4.09811 1.63506 2.36531C1.59619 2.14732 1.58272 1.92364 1.56435 1.70163C1.55119 1.54367 1.63445 1.46252 1.77097 1.51685C1.89219 1.56514 2.02352 1.62617 2.11137 1.72343C2.90236 2.6014 3.36581 3.65812 3.5155 4.88017C3.52713 4.97408 3.53968 5.06831 3.54243 5.16288C3.54733 5.30776 3.54396 5.45297 3.54396 5.59785Z" fill="#FF4600"/>
</svg>
